<?xml version="1.0" standalone="no"?>
<!DOCTYPE svg PUBLIC "-//W3C//DTD SVG 20010904//EN"
 "http://www.w3.org/TR/2001/REC-SVG-20010904/DTD/svg10.dtd">
<svg version="1.0" xmlns="http://www.w3.org/2000/svg"
 width="800.000000pt" height="800.000000pt" viewBox="0 0 800.000000 800.000000"
 preserveAspectRatio="xMidYMid meet">
<metadata>
Created by potrace 1.14, written by Peter Selinger 2001-2017
</metadata>
<g transform="translate(0.000000,800.000000) scale(0.100000,-0.100000)"
fill="#000000" stroke="none">
<path d="M0 4000 l0 -4000 4000 0 4000 0 0 4000 0 4000 -4000 0 -4000 0 0
-4000z m5012 1669 c51 -20 145 -86 184 -130 32 -36 51 -84 73 -184 19 -86 46
-266 55 -367 5 -56 11 -66 40 -78 20 -8 19 -9 -5 -9 -21 -1 -28 5 -33 24 -4
15 -17 30 -31 35 -14 5 -25 14 -25 19 0 6 -6 8 -14 5 -8 -3 -23 5 -34 17 -12
12 -38 25 -59 30 -21 4 -60 13 -88 19 -99 22 -279 -12 -296 -57 -10 -26 -29
-31 -29 -8 0 8 -4 15 -10 15 -5 0 -10 -4 -10 -9 0 -5 -3 -17 -6 -25 -5 -12 -2
-15 10 -10 13 5 16 0 16 -25 0 -29 2 -31 28 -26 23 5 25 5 9 -5 -11 -7 -24
-13 -30 -14 -25 -4 -57 -27 -57 -41 0 -12 -23 -14 -130 -12 -152 3 -160 7
-182 97 -11 44 -19 56 -36 58 -17 3 -22 -2 -23 -20 0 -23 0 -23 -11 -2 -5 12
-26 30 -46 40 -32 16 -61 19 -200 20 -89 1 -165 4 -168 7 -10 10 -242 -32
-313 -57 -65 -24 -88 -21 -106 13 -25 50 -35 232 -22 398 6 68 56 184 89 207
10 7 16 15 13 18 -3 3 21 5 52 5 65 0 358 12 370 15 5 1 37 -1 73 -6 48 -5 94
-21 175 -60 149 -72 237 -106 294 -113 43 -5 50 -3 65 18 9 13 16 37 16 54 0
33 19 76 36 82 6 2 45 -25 88 -61 42 -35 90 -66 105 -69 16 -3 40 -9 55 -13
35 -8 34 8 -4 121 -41 120 -41 119 21 111 28 -4 73 -16 101 -27z m393 -738 c3
-5 1 -12 -4 -15 -5 -3 -11 1 -15 9 -6 16 9 21 19 6z m-104 -51 c22 0 29 -5 29
-19 0 -27 -20 -38 -32 -17 -5 9 -15 16 -22 16 -8 0 -20 8 -27 17 -12 15 -12
16 4 10 10 -4 32 -7 48 -7z m-341 -90 c0 -5 -10 -10 -22 -10 -19 0 -20 2 -8
10 19 13 30 13 30 0z m189 -19 c22 -14 19 -54 -6 -74 -17 -14 -20 -22 -13 -35
6 -9 14 -29 20 -44 5 -16 14 -28 19 -28 12 0 61 70 61 86 0 18 78 77 94 71 16
-6 50 -251 41 -290 -10 -40 -105 -123 -156 -137 -89 -25 -203 -3 -281 52 -62
44 -134 186 -122 241 6 28 7 29 60 22 42 -5 55 -3 60 9 4 10 29 16 84 21 l78
7 16 42 c9 23 16 47 16 54 0 14 10 15 29 3z m-552 -28 c23 -13 36 -34 58 -97
44 -126 143 -338 170 -366 15 -14 25 -19 25 -11 0 12 -51 111 -69 136 -5 6
-11 18 -14 28 -4 10 15 -6 42 -35 55 -60 118 -98 203 -123 47 -13 68 -14 120
-5 97 17 152 38 203 77 26 19 49 32 53 28 13 -12 14 -269 2 -356 -15 -111 -34
-185 -48 -182 -6 2 -20 -9 -31 -24 l-21 -26 0 32 0 32 -57 -7 c-32 -4 -60 -10
-63 -13 -3 -4 -21 -7 -40 -7 -31 1 -35 4 -38 31 -6 62 -18 72 -91 77 -36 3
-88 15 -115 26 -27 12 -68 22 -92 22 -24 0 -44 4 -44 8 0 13 32 39 57 46 12 4
32 20 43 37 20 27 20 29 3 29 -10 0 -31 -8 -48 -18 -27 -17 -35 -17 -73 -6
-24 8 -60 22 -80 32 -20 11 -58 29 -84 40 -27 12 -48 27 -49 34 0 7 0 34 1 60
1 28 -6 59 -16 80 -25 45 -31 380 -8 416 18 27 60 29 101 5z m463 -3 c0 -5 -4
-10 -10 -10 -5 0 -10 5 -10 10 0 6 5 10 10 10 6 0 10 -4 10 -10z m-176 -43
c23 -34 24 -37 6 -37 -20 0 -54 55 -44 72 7 11 6 12 38 -35z m-194 8 c0 -21 6
-48 35 -160 3 -11 -3 -3 -14 19 -11 21 -25 63 -31 94 -12 69 -12 72 0 72 6 0
10 -11 10 -25z m-912 -12 c5 -16 13 -36 17 -45 5 -13 2 -18 -9 -18 -22 0 -49
45 -41 70 9 28 21 25 33 -7z m202 -3 c0 -5 -5 -10 -11 -10 -5 0 -7 5 -4 10 3
6 8 10 11 10 2 0 4 -4 4 -10z m-429 -216 c50 -99 118 -173 190 -209 107 -55
263 -69 405 -38 65 14 77 14 85 2 13 -21 11 -62 -7 -105 -18 -43 -15 -124 6
-149 7 -8 23 -15 36 -15 35 0 30 -27 -8 -50 -18 -12 -72 -33 -120 -48 l-87
-26 -22 -53 c-24 -60 -30 -62 -106 -34 -29 10 -54 17 -56 15 -8 -8 -98 79
-140 135 -50 65 -89 151 -86 189 2 30 -18 88 -28 79 -3 -4 -15 -1 -27 5 -25
14 -95 11 -113 -4 -7 -6 -13 -7 -13 -2 -1 5 -8 0 -18 -12 -9 -11 -19 -20 -22
-20 -15 0 -39 -25 -70 -71 -34 -51 -35 -52 -48 -30 -8 13 -11 15 -8 5 12 -40
-13 -14 -42 45 -17 34 -49 83 -71 109 -50 62 -71 136 -47 173 9 14 24 25 32
25 10 0 14 6 11 14 -5 11 3 14 33 12 22 -2 37 0 35 4 -3 5 9 13 25 19 18 6 28
6 25 1 -4 -6 -13 -10 -22 -10 -9 0 -14 -3 -10 -6 10 -10 59 5 52 16 -3 5 8 2
25 -8 30 -16 32 -16 45 1 13 18 13 18 18 0 4 -16 5 -15 6 3 0 11 -5 26 -11 33
-7 7 -8 11 -3 10 15 -3 65 12 65 21 0 5 31 46 46 59 0 1 20 -38 45 -85z m169
45 c33 -10 68 -10 173 0 143 14 171 9 215 -32 34 -31 48 -64 55 -123 5 -42 2
-55 -11 -68 -48 -42 -237 -47 -328 -7 -97 42 -182 158 -175 240 0 7 7 11 15 8
8 -3 33 -11 56 -18z m1150 -714 c14 -8 37 -14 52 -15 36 0 47 -20 11 -21 -15
0 -75 -2 -133 -5 -173 -8 -192 -8 -255 2 l-60 10 50 13 c28 7 61 17 75 21 44
15 232 11 260 -5z m141 -95 c9 -14 20 -38 24 -55 6 -29 6 -29 -14 -11 -21 19
-21 19 -21 -14 0 -19 -4 -47 -9 -64 -6 -17 -15 -57 -22 -89 -12 -56 -23 -63
-31 -22 -5 22 -6 21 -37 -58 -11 -28 -11 -28 -36 -10 -16 11 -27 32 -31 56 -4
21 -13 44 -20 52 -8 7 -14 18 -14 24 0 6 -47 8 -137 4 -130 -5 -143 -4 -220
21 -46 15 -83 29 -83 31 0 2 -3 10 -6 19 -11 29 48 46 194 56 132 8 289 41
366 75 43 19 76 14 97 -15z m-813 -218 c6 -18 -15 -14 -22 4 -4 10 -1 14 6 12
6 -2 14 -10 16 -16z m179 -119 c5 -15 -36 -28 -49 -15 -6 6 -7 15 -3 22 9 14
47 9 52 -7z m-1042 -310 c-2 -21 -10 -85 -16 -143 -6 -58 -13 -107 -15 -109
-2 -2 -11 13 -20 35 -16 37 -15 44 7 137 20 85 21 100 8 108 -10 6 -7 9 14 9
26 0 27 -2 22 -37z m1515 -155 c0 -7 -5 -80 -10 -162 -10 -155 -25 -209 -81
-287 -46 -65 -195 -155 -274 -166 l-45 -6 -1 99 c-1 55 -1 101 -1 104 0 31 13
103 21 117 5 10 33 41 63 68 91 84 132 124 145 137 39 41 60 56 111 80 67 31
72 32 72 16z m-1836 -163 c-4 -8 -15 -15 -25 -15 -10 0 -18 -4 -16 -9 1 -5 -2
-9 -8 -9 -5 0 -12 -7 -15 -16 -3 -10 -10 -12 -18 -7 -10 6 0 17 34 40 55 36
55 36 48 16z m-304 -179 c0 -2 -7 -7 -16 -10 -8 -3 -12 -2 -9 4 6 10 25 14 25
6z m-50 -21 c0 -2 -10 -9 -22 -15 -22 -11 -22 -10 -4 4 21 17 26 19 26 11z
m-50 -29 c0 -2 -7 -7 -16 -10 -8 -3 -12 -2 -9 4 6 10 25 14 25 6z m-80 -46
c-14 -11 -29 -20 -35 -20 -5 0 4 9 20 20 38 25 48 25 15 0z m-80 -44 c0 -2 -7
-7 -16 -10 -8 -3 -12 -2 -9 4 6 10 25 14 25 6z"/>
<path d="M5155 5050 c3 -5 13 -10 21 -10 8 0 12 5 9 10 -3 6 -13 10 -21 10 -8
0 -12 -4 -9 -10z"/>
</g>
</svg>
